<svg width="1080" height="1080" viewBox="0 0 1080 1080" fill="none" xmlns="http://www.w3.org/2000/svg">
<rect width="1080" height="1080" fill="white"/>
<path d="M378.07 665.911L420.896 755.502L415.585 758.041C413.792 758.898 411.733 759.008 409.86 758.346C407.987 757.685 406.453 756.306 405.597 754.514L369.23 678.438C368.374 676.646 368.264 674.587 368.925 672.714C369.587 670.84 370.966 669.307 372.758 668.45L378.07 665.911L378.07 665.911Z" fill="#71C8EA"/>
<path d="M424.695 645.68L395.139 657.898L411.72 681.346L437.922 673.351L424.695 645.68Z" fill="#FFCCB3"/>
<path d="M405.816 658.834C405.816 658.834 417.355 676.657 419.096 686.615C420.836 696.574 426.798 746.948 425.194 751.489C424.041 754.753 419.853 756.153 417.196 756.45C416.613 756.512 416.025 756.391 415.514 756.104C415.003 755.817 414.593 755.378 414.343 754.848L375.468 673.523C374.818 672.166 374.727 670.609 375.213 669.185C375.7 667.762 376.725 666.586 378.07 665.911C383.448 663.209 391.675 659.16 395.139 657.899C400.493 655.95 404.027 655.962 405.816 658.834Z" fill="#5661AE"/>
<path d="M615.043 701.47L574.879 775.611C573.933 777.358 572.332 778.657 570.428 779.223C568.524 779.789 566.472 779.575 564.726 778.629L559.549 775.825L606.848 688.512L612.025 691.317C613.772 692.263 615.071 693.864 615.637 695.768C616.203 697.672 615.99 699.723 615.043 701.47Z" fill="#71C8EA"/>
<path d="M561.305 665.952L590.206 679.648L572.461 702.228L546.696 692.919L561.305 665.952Z" fill="#FFCCB3"/>
<path d="M579.495 680.043C579.495 680.043 567.07 697.259 564.828 707.117C562.587 716.975 554.088 766.983 555.46 771.6C556.446 774.918 560.558 776.528 563.197 776.958C563.776 777.05 564.369 776.959 564.894 776.698C565.419 776.437 565.85 776.019 566.127 775.502L609.063 696.246C609.78 694.924 609.95 693.373 609.536 691.927C609.122 690.48 608.157 689.254 606.849 688.512C601.614 685.542 593.601 681.082 590.206 679.648C584.957 677.431 581.427 677.264 579.495 680.043Z" fill="#5661AE"/>
<path d="M648.374 560.339C648.374 560.339 659.438 615.282 650.852 626.047L432.067 682.069L413.41 647.122L541.17 589.148L566.757 554.078L648.374 560.339Z" fill="#D1E8F7"/>
<path d="M593.01 599.544L544.738 615.689L522.213 625.134L551.505 651.487L525.317 657.403L453.886 599.544H593.01Z" fill="#5CA4E6"/>
<path d="M427.119 642.539L428.604 647.7L462.524 674.175L494.387 666.401C494.387 666.401 432.92 637.149 427.119 642.539Z" fill="#5CA4E6"/>
<path d="M488.525 557.134C488.525 557.134 426.66 553.778 395.996 556.473C376.251 558.209 369.133 608.736 384.89 617.928L553.996 704.514L573.924 668.504L464.835 594.663L542.88 583.685L488.525 557.134Z" fill="#D1E8F7"/>
<path d="M401.196 622.229C419.466 622.229 434.277 607.418 434.277 589.148C434.277 570.877 419.466 556.066 401.196 556.066C382.925 556.066 368.114 570.877 368.114 589.148C368.114 607.418 382.925 622.229 401.196 622.229Z" fill="#D1E8F7"/>
<path d="M645.356 626.502C663.626 626.502 678.437 611.691 678.437 593.42C678.437 575.15 663.626 560.339 645.356 560.339C627.085 560.339 612.274 575.15 612.274 593.42C612.274 611.691 627.085 626.502 645.356 626.502Z" fill="#D1E8F7"/>
<path d="M554.734 437.314C551.249 420.108 559.445 420.552 562.173 417.816C562.173 417.816 572.405 409.378 580.202 417.244C588.455 425.564 635.764 490.194 635.764 490.194L606.163 517.419L600.599 510.779L586.186 493.59L570.77 475.218L568.855 473.126L548.059 449.571C548.059 449.571 556.705 446.372 554.734 437.314Z" fill="#5661AE"/>
<path d="M571.15 454.592C583.063 450.601 589.486 437.709 585.496 425.796C581.506 413.883 568.614 407.46 556.7 411.45C544.787 415.44 538.364 428.333 542.354 440.246C546.345 452.159 559.237 458.582 571.15 454.592Z" fill="#5661AE"/>
<path d="M569.128 473.035C568.531 469.439 567.337 462.247 566.052 455.692L559.222 423.967C559.222 423.967 577.565 451.077 586.015 469.96C592.274 484.111 599.534 498.533 600.735 510.734L586.323 493.544L570.907 475.172L569.128 473.035Z" fill="#465393"/>
<path d="M665.331 417.431C672.365 404.602 668.985 402.424 671.977 395.124C674.925 388.001 669.691 370.345 674.702 372.752C679.712 375.16 681.263 381.558 681.263 381.558C684.69 375.496 687.846 364.342 696.049 363.065C704.254 361.788 704.98 364.37 709.63 368.186C722.001 378.479 706.226 393.948 703.593 399.839C701.899 403.531 689.452 414.788 688.073 417.249L681.808 426.336L665.331 417.431Z" fill="#FFCCB3"/>
<path d="M689.5 382.353L699.497 363.896L689.5 382.353Z" fill="#E56441"/>
<path d="M689.5 382.353L699.497 363.896" stroke="#E56441" stroke-width="0.94666" stroke-linecap="round"/>
<path d="M696.05 385.342L706.946 368.153L696.05 385.342Z" fill="#E56441"/>
<path d="M696.05 385.342L706.946 368.153" stroke="#E56441" stroke-width="0.94666" stroke-linecap="round"/>
<path d="M703.832 388.647L710.059 378.237L703.832 388.647Z" fill="#E56441"/>
<path d="M703.832 388.647L710.059 378.237" stroke="#E56441" stroke-width="0.94666" stroke-linecap="round"/>
<path d="M687.03 398.601C686.977 392.211 683.142 384.477 683.142 384.477L687.03 398.601Z" fill="#E56441"/>
<path d="M687.03 398.601C686.977 392.211 683.142 384.477 683.142 384.477" stroke="#E56441" stroke-width="0.94666" stroke-linecap="round"/>
<path d="M605.912 489.68L666.105 409.52C666.488 409.049 667.033 408.737 667.633 408.644C668.233 408.55 668.847 408.682 669.355 409.015L685.117 419.438C685.866 419.946 686.399 420.714 686.614 421.592C686.829 422.471 686.709 423.399 686.278 424.194L637.872 513.463L605.912 489.68Z" fill="#5661AE"/>
<path d="M620.537 523.537C631.67 523.537 640.695 514.513 640.695 503.38C640.695 492.248 631.67 483.223 620.537 483.223C609.405 483.223 600.38 492.248 600.38 503.38C600.38 514.513 609.405 523.537 620.537 523.537Z" fill="#5661AE"/>
<path d="M531.151 400.097C531.151 400.097 564.929 409.036 570.728 411.356C576.527 413.675 576.913 422.953 577.3 429.525C577.686 436.096 576.388 583.685 576.388 583.685L501.632 580.81L445.726 548.084C445.726 548.084 448.156 430.979 448.93 425.567C449.703 420.155 443.628 415.494 450.213 412.77L492.543 401.588L531.151 400.097Z" fill="#5661AE"/>
<path d="M474.898 452.674L475.5 561.718L443.362 525.898L458.911 449.281L474.898 452.674Z" fill="#465393"/>
<path d="M487.03 403.254C487.03 403.254 482.248 412.872 487.03 419.506C491.812 426.14 510.956 432.584 524.035 432.395C537.113 432.205 544.043 419.736 538.114 402.278L516.453 396.192L492.543 401.588L487.03 403.254Z" fill="#465393"/>
<path d="M541.172 320.37C541.172 320.37 550.59 340.693 540.545 344.891C530.5 349.089 531.67 321.356 541.172 320.37Z" fill="#93523E"/>
<path d="M530.548 385.402L533.273 416.126C533.273 416.126 535.885 420.245 525.712 422.408C519.168 423.8 501.545 416.857 498.127 414.774C496.673 414.002 495.534 412.747 494.906 411.226C494.278 409.705 494.199 408.012 494.685 406.44C495.724 402.679 500.029 371.358 500.029 371.358L530.548 385.402Z" fill="#FFCCB3"/>
<path d="M531.073 391.326L514.841 383.307L532.937 412.339L531.073 391.326Z" fill="#FF967C"/>
<path d="M535.763 326.252C535.763 326.252 545.289 350.142 548.744 366.902C552.23 383.81 546.668 388.033 539.328 390.52C533.54 392.481 524.296 394.045 518.007 392.077C506.541 388.487 495.323 378.126 492.64 375.998C488.486 372.703 484.384 357.757 490.473 349.301C496.562 340.846 520.551 314.274 535.763 326.252Z" fill="#FFCCB3"/>
<path d="M523.499 359.227C524.766 358.729 525.176 356.757 524.415 354.824C523.654 352.89 522.011 351.727 520.744 352.225C519.477 352.723 519.067 354.695 519.827 356.629C520.588 358.562 522.232 359.726 523.499 359.227Z" fill="#080B09"/>
<path d="M540.911 352.25C542.178 351.752 542.588 349.78 541.827 347.846C541.067 345.913 539.423 344.749 538.156 345.248C536.889 345.746 536.479 347.718 537.24 349.651C538 351.585 539.644 352.748 540.911 352.25Z" fill="#080B09"/>
<path d="M534.525 355.549C534.525 355.549 532.978 360.231 536.23 359.775C539.321 359.232 541.418 360.759 538.718 363.896" fill="#E56441"/>
<path d="M534.525 355.549C534.525 355.549 532.978 360.231 536.23 359.775C539.321 359.232 541.418 360.759 538.718 363.896" stroke="#E56441" stroke-width="0.94666" stroke-linecap="round"/>
<path d="M538.869 368.036L538.885 368.032L538.901 368.027C538.946 368.014 538.994 368.012 539.039 368.023C539.085 368.034 539.127 368.057 539.161 368.09C539.195 368.122 539.22 368.164 539.233 368.209C539.245 368.254 539.246 368.302 539.234 368.348L539.224 368.387L539.22 368.427C539.021 370.476 538.511 371.693 537.892 372.378C537.294 373.039 536.544 373.259 535.693 373.194C534.82 373.128 533.861 372.76 532.932 372.255C532.014 371.756 531.161 371.143 530.502 370.617C530.457 370.575 530.424 370.522 530.406 370.464C530.386 370.402 530.384 370.336 530.4 370.274C530.415 370.211 530.448 370.154 530.493 370.108C530.539 370.063 530.596 370.031 530.659 370.016L530.659 370.016L530.664 370.014C533.178 369.378 536.97 368.484 538.869 368.036Z" fill="#E56441" stroke="#E56441"/>
<path d="M512.468 351.041L512.706 351.375C513.011 351.892 513.508 352.268 514.089 352.42C514.669 352.572 515.286 352.489 515.806 352.187L524.592 346.774C525.029 346.529 525.357 346.13 525.513 345.655C525.668 345.18 525.64 344.663 525.433 344.208C525.319 343.924 525.147 343.666 524.926 343.453C524.706 343.24 524.442 343.076 524.154 342.972C523.866 342.869 523.558 342.827 523.253 342.851C522.947 342.875 522.65 342.963 522.381 343.11L513.356 348.19C513.107 348.315 512.886 348.489 512.705 348.702C512.525 348.914 512.389 349.161 512.306 349.427C512.224 349.693 512.195 349.973 512.223 350.251C512.25 350.528 512.334 350.797 512.468 351.041Z" fill="#080B09"/>
<path d="M542.823 337.158L532.511 338.114C532.206 338.146 531.911 338.242 531.646 338.397C531.381 338.551 531.152 338.76 530.974 339.009C530.796 339.258 530.673 339.543 530.613 339.843C530.553 340.144 530.557 340.454 530.625 340.753C530.714 341.245 530.984 341.686 531.382 341.988C531.781 342.29 532.278 342.432 532.776 342.385L543.082 341.839C543.68 341.792 544.236 341.509 544.627 341.054C545.018 340.599 545.213 340.007 545.169 339.408L545.176 338.998C545.147 338.721 545.062 338.452 544.927 338.208C544.792 337.964 544.609 337.75 544.39 337.579C544.17 337.407 543.918 337.281 543.649 337.209C543.38 337.137 543.099 337.119 542.823 337.158Z" fill="#080B09"/>
<path d="M523.94 331.018C523.94 331.018 518.793 340.812 509.455 343.717C500.117 346.621 505.22 361.359 505.22 361.359C505.22 361.359 498.817 354.99 491.456 358.575C484.096 362.161 489.683 376.232 499.852 376.412L497.086 392.246C497.086 392.246 491.936 385.832 486.52 382.4C481.103 378.969 461.645 365.647 470.241 348.103C470.241 348.103 463.516 323.467 481.96 310.695C500.404 297.922 516.368 302.742 516.368 302.742C516.368 302.742 520.765 295.767 530.957 297.192C541.148 298.617 543.499 316.995 540.124 323.642C536.749 330.289 531.249 333.114 523.94 331.018Z" fill="#93523E"/>
<path d="M447.099 429.212C460.069 417.382 463.899 424.641 467.648 425.576C467.648 425.576 480.144 430.019 477.402 440.749C474.504 452.105 443.362 525.898 443.362 525.898L404.797 514.49L407.635 506.305L414.977 485.108L422.819 462.443L423.629 459.726L433.153 429.782C433.153 429.782 440.34 435.556 447.099 429.212Z" fill="#5661AE"/>
<path d="M472.785 449.685C480.956 440.141 479.842 425.78 470.298 417.61C460.754 409.439 446.393 410.553 438.223 420.097C430.052 429.641 431.165 444.002 440.71 452.172C450.254 460.343 464.614 459.229 472.785 449.685Z" fill="#5661AE"/>
<path d="M439.544 507.773L511.142 577.933C511.559 578.375 511.797 578.955 511.811 579.562C511.825 580.17 511.614 580.761 511.218 581.222L498.823 595.484C498.222 596.16 497.391 596.589 496.491 596.687C495.592 596.785 494.688 596.544 493.956 596.013L411.785 536.348L439.544 507.773Z" fill="#5661AE"/>
<path d="M424.048 540.638C435.181 540.638 444.206 531.613 444.206 520.481C444.206 509.348 435.181 500.323 424.048 500.323C412.916 500.323 403.891 509.348 403.891 520.481C403.891 531.613 412.916 540.638 424.048 540.638Z" fill="#5661AE"/>
<path d="M540.532 494.258L501.675 601.91H423.547C423.547 598.623 424.853 595.471 427.177 593.146C429.502 590.822 432.654 589.516 435.941 589.516H492.464L526.017 494.258H540.532Z" fill="white"/>
<path d="M540.532 494.258H645.356L604.816 601.911H501.675L540.532 494.258Z" fill="url(#paint0_linear)"/>
<defs>
<linearGradient id="paint0_linear" x1="569.939" y1="494.002" x2="588.575" y2="723.418" gradientUnits="userSpaceOnUse">
<stop stop-color="white"/>
<stop offset="1" stop-color="#94B9FF"/>
</linearGradient>
</defs>
</svg>
